<?xml version="1.0" encoding="utf-8"?>
<!-- Generator: Adobe Illustrator 28.2.0, SVG Export Plug-In . SVG Version: 6.00 Build 0)  -->
<svg version="1.1" id="Layer_1" xmlns="http://www.w3.org/2000/svg" xmlns:xlink="http://www.w3.org/1999/xlink" x="0px" y="0px"
	 viewBox="0 0 1010.1 1010.1" style="enable-background:new 0 0 1010.1 1010.1;" xml:space="preserve">
<style type="text/css">
	.st0{fill:#FFFFFF;}
	.st1{fill:#29235C;}
</style>
<path class="st0" d="M914.7,1010.1H95.4c-52.7,0-95.4-42.7-95.4-95.4V95.4C0,42.7,42.7,0,95.4,0h819.3c52.7,0,95.4,42.7,95.4,95.4
	v819.3C1010.1,967.4,967.4,1010.1,914.7,1010.1z"/>
<g>
	<g>
		<g>
			<g>
				<path class="st1" d="M361.4,82.1c90.9,0,131.8,56,128.1,127s-49.2,130.8-141.6,130.8H237.4l13.5-257.8H361.4z M312.8,278.4h38.3
					c46.4,0,64.4-34.6,66.3-70s-14.6-65.5-59.2-65.5h-38.3L312.8,278.4z"/>
				<path class="st1" d="M569.7,228.6c-1.3,38.7,19.3,53.4,44.7,53.4c30.6,0,49.6-18.8,51.4-53.8l4.5-85.1h-68.5l3.2-61h141.4
					l-7.7,146.5c-3.6,67.8-49.2,116.7-128.4,116.7c-74.4,0-115.9-36.1-111.7-116.7L569.7,228.6L569.7,228.6z"/>
			</g>
			<g>
				<path class="st1" d="M319.1,664.7l-3.2,61.1h68.5l-4.5,85.1c-1.8,35-20.9,53.8-51.4,53.8c-25.4,0-46-14.7-44.7-53.4h-71.1
					C208.5,891.9,250,928,324.4,928c37.8,0,67.9-11.1,89.5-30.2l37.9-75.7c0.5-3.6,0.8-7.2,1-10.9l7.7-146.5L319.1,664.7
					L319.1,664.7z"/>
				<path class="st1" d="M625.5,880.1H510.2L491,922.4h-77.3l129.2-257.7h73.6l101.7,257.8h-78.1L625.5,880.1z M575.5,736.9
					L538.1,819H604L575.5,736.9z"/>
				<path class="st1" d="M776.8,753.1l60.2-88.4h82.1l-0.2,3.3L808.7,819.7l-5.4,102.7h-72.9l5.4-102.7l-90-152.1l0.2-2.9h82.1
					L776.8,753.1z"/>
			</g>
			<g>
				<path class="st1" d="M445.5,480.4l-70,78.1h-12.9l-60.4-77.7l-8,153.2H222l13.5-257.8h76.2l63.2,87.3l72.3-87.3h75.9L509.6,634
					h-72.2L445.5,480.4z"/>
				<path class="st1" d="M761.4,633.9h-80.3l-55.6-83.6h-25.4l-4.4,83.6h-72.9l13.5-257.8h125.9c65.9,0,97.9,42.3,95.5,88.7
					c-1.7,31.7-14.1,58.5-58.6,77.7l62.5,86.9L761.4,633.9z M606.2,434.4l-3.2,61.9h53.8c19.1,0,28.4-14.4,29.2-29.8
					c0.8-16.2-7.5-32-26.7-32h-53.1V434.4z"/>
				<path class="st1" d="M796.5,572.4c-17,0-31.5,13.7-32.3,30.7c-0.9,17,12.2,30.7,29.1,30.7c17,0,31.4-13.8,32.3-30.7
					C826.5,586.2,813.4,572.4,796.5,572.4z M808.4,603.2c-0.4,7.5-6.8,13.5-14.2,13.5c-7.5,0-13.2-6.1-12.8-13.5
					c0.4-7.5,6.8-13.5,14.2-13.5C803,589.7,808.8,595.7,808.4,603.2z"/>
			</g>
		</g>
		<g>
			<path class="st1" d="M169.2,881.8l-1.2,23.1h-57.2l-1.2,23.1H90.9l3.6-69.3h18.7l-1.2,23.1L169.2,881.8L169.2,881.8z"/>
			<path class="st1" d="M98.5,783.7h75.8l-1.2,23.1h-28.5l-1.3,25.3h28.5l-1.2,23.1H94.7l1.2-23.1h28.7l1.3-25.3H97.3L98.5,783.7z"
				/>
			<path class="st1" d="M118.6,756.4h10.5l1.4-26.4h17.4l-1.4,26.4H157l1.8-35h18.7l-3,58.1H98.7l3-57.8h18.7L118.6,756.4z"/>
			<path class="st1" d="M105,659.1h75.8l-1.2,23.1h-75.8L105,659.1z"/>
			<path class="st1" d="M109,583.5h75.8l-0.8,15.2l-39.8,33.1h38l-1.2,23.1h-75.8l0.8-15.2l39.8-33.1h-38L109,583.5z"/>
			<path class="st1" d="M145.7,580c-22.5,0-38.4-18.2-37.1-42.2c0.7-13.1,7-24.6,16.3-32h1.6l11.2,14l-0.1,1.6
				c-4.4,3.9-7.9,9.8-8.2,16.5c-0.5,10.4,6.8,18.6,17.6,18.6c10.8,0,19-8.2,19.5-18.6c0.3-6.7-2.5-12.6-6.5-16.5l0.1-1.6l12.6-14
				h1.6c8.1,7.1,13.6,18.2,12.9,32.3C185.9,561.7,168.2,580,145.7,580z"/>
			<path class="st1" d="M190.8,435.4l1.7,1l-1.2,23l-27.4,14.4l-0.3,5.5h26.6l-1.2,23.1h-75.8l1.8-34.8c1-20,11.4-30.7,26.9-30.7
				c9.9,0,16.5,5.6,19.9,13.9L190.8,435.4z M148.5,479.3l0.6-10.7c0.2-4.3-2-8.1-7-8.1c-5.1,0-8.1,3.7-8.4,8.1l-0.6,10.7H148.5z"/>
			<path class="st1" d="M136.8,408.8h10.5l1.4-26.4h17.5l-1.4,26.4h10.5l1.8-35h18.7l-3,58.1h-75.9l3-57.8h18.7L136.8,408.8z"/>
			<path class="st1" d="M161.9,294.8c22.9,0,37.2,15.3,35.9,40.1l-1.9,35.4h-75.8l1.9-35.4C123.3,310.1,139.3,294.8,161.9,294.8z
				 M160.8,318.4c-12.4,0-19.6,7.4-20.2,17.5l-0.6,11.3h38.5l0.6-11.3C179.6,325.7,173.1,318.4,160.8,318.4z"/>
			<path class="st1" d="M125.5,268.2h75.8l-1.2,23.1h-75.8L125.5,268.2z"/>
			<path class="st1" d="M183.6,199.2c13.2,0,20.8,11.1,19.9,27.8l-1.9,37.1h-75.9l1.9-35.4c0.8-15.3,9.5-25.4,21.2-25.4
				c7,0,12.3,3.7,15,9.8C166.8,206.1,173.1,199.2,183.6,199.2z M143.8,232.8l-0.4,8.2h13.8l0.4-8.2c0.2-4.6-2.3-7.6-6.5-7.6
				C146.9,225.2,144,228.3,143.8,232.8z M179.7,221.8c-4.6,0-7.8,3.6-8.1,9.1l-0.5,10h15.2l0.5-10
				C187.1,225.5,184.3,221.8,179.7,221.8z"/>
			<path class="st1" d="M207.8,143.7l-2.7,52h-75.8l1.2-23.1h57.2l1.5-28.9H207.8z"/>
			<path class="st1" d="M152.1,117.1h10.5l1.3-26.4h17.5l-1.3,26.4h10.5l1.8-35h18.7l-3,58.1h-75.9l3-57.8h18.7L152.1,117.1z"/>
		</g>
	</g>
</g>
</svg>
